<svg width="473" height="570" viewBox="0 0 473 570" fill="none" xmlns="http://www.w3.org/2000/svg">
<path d="M472.314 279.7C472.327 289.533 470.397 299.271 466.634 308.356C462.872 317.441 457.351 325.693 450.389 332.639L345.445 437.349C337.966 444.834 329.085 450.772 319.309 454.824C309.533 458.875 299.054 460.961 288.471 460.961C277.888 460.961 267.409 458.875 257.633 454.824C247.857 450.772 238.975 444.834 231.497 437.349L182.509 388.376L344.428 226.506C354.922 216.026 368.292 208.896 382.843 206.018C397.394 203.141 412.473 204.645 426.168 210.342C439.863 216.038 451.559 225.67 459.774 238.017C467.989 250.364 472.353 264.871 472.314 279.7Z" fill="#FBC01A" fill-opacity="0.06"/>
<path d="M345.445 437.349L235.413 547.348C228.474 554.289 220.234 559.795 211.165 563.551C202.096 567.308 192.376 569.241 182.559 569.241C172.743 569.241 163.023 567.308 153.954 563.551C144.885 559.795 136.645 554.289 129.706 547.348L76.5977 494.357L20.6409 438.417C7.16477 424.255 -0.240411 405.388 0.00595605 385.843C0.252323 366.298 8.13074 347.624 21.9596 333.806C35.7884 319.988 54.4722 312.121 74.023 311.884C93.5738 311.647 112.443 319.059 126.603 332.538L231.496 437.349C238.975 444.834 247.856 450.773 257.633 454.824C267.409 458.876 277.888 460.961 288.47 460.961C299.053 460.961 309.532 458.876 319.308 454.824C329.084 450.773 337.966 444.834 345.445 437.349Z" fill="#2ED06A" fill-opacity="0.06"/>
<path d="M184.543 150.733C226.18 150.733 259.932 116.99 259.932 75.3664C259.932 33.7427 226.18 0 184.543 0C142.907 0 109.154 33.7427 109.154 75.3664C109.154 116.99 142.907 150.733 184.543 150.733Z" fill="#2ED06A" fill-opacity="0.06"/>
</svg>
