<svg width="16" height="14" viewBox="0 0 16 14" fill="none" xmlns="http://www.w3.org/2000/svg">
<path d="M15.8907 6.66409C14.9196 5.39172 13.7532 4.28102 12.4348 3.37327L14.6896 1.11843C14.9166 0.899192 14.9229 0.537454 14.7037 0.310447C14.4844 0.0834399 14.1227 0.0771453 13.8957 0.296384C13.8909 0.300971 13.8863 0.305659 13.8816 0.310447L11.4182 2.77156C10.3697 2.19447 9.19663 1.88071 7.99999 1.85727C3.65717 1.85727 0.252076 6.46752 0.109209 6.66406C-0.0364031 6.86438 -0.0364031 7.13572 0.109209 7.33604C1.08038 8.60842 2.24679 9.71911 3.56516 10.6269L1.31033 12.8817C1.08333 13.1009 1.07703 13.4627 1.29627 13.6897C1.51551 13.9167 1.87725 13.923 2.10425 13.7038C2.10901 13.6992 2.1137 13.6945 2.11832 13.6897L4.58171 11.2286C5.63025 11.8057 6.80332 12.1194 7.99996 12.1429C12.3428 12.1429 15.7479 7.53261 15.8907 7.33604C16.0364 7.13575 16.0364 6.86442 15.8907 6.66409ZM4.39602 9.79776C3.23195 9.02246 2.18853 8.07977 1.29949 7.00008C2.14062 5.98123 4.86858 3.00011 7.99999 3.00011C8.89091 3.01812 9.76683 3.23278 10.5651 3.62866L9.5731 4.62066C8.26062 3.7493 6.49023 4.10689 5.61887 5.41937C4.98412 6.37545 4.98412 7.61883 5.61887 8.5749L4.39602 9.79776ZM9.54283 6.26579C9.65466 6.49448 9.71329 6.74552 9.71426 7.00008C9.71426 7.94685 8.94676 8.71436 7.99999 8.71436C7.74543 8.71338 7.49439 8.65476 7.26571 8.54293L9.54283 6.26579ZM6.45715 7.73434C6.34532 7.50566 6.2867 7.25461 6.28573 7.00005C6.28573 6.05329 7.05323 5.28578 7.99999 5.28578C8.25456 5.28675 8.5056 5.34538 8.73428 5.45721L6.45715 7.73434ZM7.99999 11C7.10908 10.982 6.23319 10.7674 5.43489 10.3715L6.42689 9.37947C7.73937 10.2508 9.50975 9.89325 10.3811 8.58076C11.0159 7.62469 11.0159 6.38131 10.3811 5.42523L11.604 4.20238C12.768 4.97768 13.8115 5.9204 14.7005 7.00005C13.8593 8.01894 11.1314 11 7.99999 11Z" fill="#181818" fill-opacity="0.8"/>
</svg>
