<svg width="16" height="16" viewBox="0 0 16 16" fill="none" xmlns="http://www.w3.org/2000/svg">
<path d="M15.8983 7.68882C15.7554 7.49329 12.3496 2.90112 7.99992 2.90112C3.65019 2.90112 0.244313 7.49329 0.101531 7.68863C-0.0338438 7.87413 -0.0338438 8.12573 0.101531 8.31123C0.244313 8.50676 3.65019 13.0989 7.99992 13.0989C12.3496 13.0989 15.7554 8.50673 15.8983 8.31138C16.0339 8.12592 16.0339 7.87413 15.8983 7.68882ZM7.99992 12.044C4.79588 12.044 2.02085 8.99607 1.19938 7.99966C2.01979 7.00238 4.78901 3.95606 7.99992 3.95606C11.2038 3.95606 13.9787 7.00344 14.8005 8.00038C13.9801 8.99763 11.2108 12.044 7.99992 12.044Z" fill="#181818" fill-opacity="0.8"/>
<path d="M8.00005 4.83521C6.25499 4.83521 4.83521 6.25499 4.83521 8.00005C4.83521 9.74512 6.25499 11.1649 8.00005 11.1649C9.74511 11.1649 11.1649 9.74512 11.1649 8.00005C11.1649 6.25499 9.74511 4.83521 8.00005 4.83521ZM8.00005 10.1099C6.83661 10.1099 5.89017 9.16346 5.89017 8.00005C5.89017 6.83665 6.83664 5.89018 8.00005 5.89018C9.16345 5.89018 10.1099 6.83665 10.1099 8.00005C10.1099 9.16346 9.16348 10.1099 8.00005 10.1099Z" fill="#181818" fill-opacity="0.8"/>
</svg>
