<svg width="129" height="35" viewBox="0 0 129 35" fill="none" xmlns="http://www.w3.org/2000/svg">
<path d="M27.8447 16.9788C27.8455 17.5757 27.7317 18.1668 27.5099 18.7183C27.288 19.2698 26.9625 19.7707 26.5521 20.1924L20.3645 26.5484C19.9236 27.0028 19.3999 27.3633 18.8235 27.6092C18.2471 27.8551 17.6293 27.9817 17.0053 27.9817C16.3814 27.9817 15.7635 27.8551 15.1871 27.6092C14.6107 27.3633 14.0871 27.0028 13.6461 26.5484L10.7578 23.5757L20.3045 13.7529C20.9231 13.117 21.7111 12.6842 22.5688 12.5094C23.4264 12.3347 24.3152 12.4257 25.1226 12.7712C25.9299 13.1166 26.6195 13.7007 27.1041 14.4498C27.5887 15.1988 27.8465 16.0789 27.8447 16.9788Z" fill="#FBC01A"/>
<path d="M20.3646 26.5478L13.8771 33.228C13.468 33.6494 12.9822 33.9836 12.4475 34.2116C11.9128 34.4397 11.3397 34.557 10.7609 34.557C10.1821 34.557 9.60899 34.4397 9.07429 34.2116C8.53959 33.9836 8.05378 33.6494 7.64462 33.228L4.51337 30.0083L1.21415 26.6127C0.420363 25.7522 -0.0152111 24.6065 0.000405895 23.4201C0.0160229 22.2337 0.481594 21.1005 1.29774 20.2625C2.11389 19.4245 3.21596 18.9481 4.36871 18.9349C5.52146 18.9216 6.63357 19.3727 7.46767 20.1917L13.6462 26.5478C14.0872 27.0022 14.6108 27.3627 15.1872 27.6086C15.7636 27.8545 16.3814 27.9811 17.0054 27.9811C17.6294 27.9811 18.2472 27.8545 18.8236 27.6086C19.4 27.3627 19.9237 27.0022 20.3646 26.5478Z" fill="#2ED06A"/>
<path d="M10.8785 9.14979C13.3334 9.14979 15.3235 7.10154 15.3235 4.5749C15.3235 2.04825 13.3334 0 10.8785 0C8.42366 0 6.43359 2.04825 6.43359 4.5749C6.43359 7.10154 8.42366 9.14979 10.8785 9.14979Z" fill="#2ED06A"/>
<path d="M52.5761 9.51367C52.773 9.51689 52.9675 9.56001 53.1482 9.64056C53.329 9.72112 53.4925 9.83753 53.6295 9.98315C53.7666 10.1288 53.8744 10.3008 53.9468 10.4893C54.0193 10.6778 54.0549 10.8792 54.0518 11.0819C54.051 11.2404 54.0299 11.3982 53.9888 11.5511C53.9445 11.7184 53.8736 11.8769 53.7788 12.0203L48.1972 20.2471L48.638 18.4999V25.7635C48.6434 25.9657 48.6087 26.1668 48.536 26.3547C48.4633 26.5426 48.3541 26.7133 48.2151 26.8563C48.0875 26.9965 47.9333 27.1084 47.762 27.1848C47.5908 27.2613 47.4061 27.3008 47.2194 27.3008C47.0236 27.3051 46.8291 27.2679 46.648 27.1914C46.4669 27.1149 46.303 27.0009 46.1666 26.8563C46.0261 26.7123 45.9155 26.5403 45.8418 26.3508C45.768 26.1613 45.7326 25.9583 45.7377 25.7542V18.7036L45.9327 19.5124L40.6209 12.2487C40.4751 12.0635 40.3596 11.8549 40.279 11.6313C40.2171 11.4518 40.1837 11.2631 40.1801 11.0726C40.1751 10.8582 40.2193 10.6457 40.3089 10.4521C40.3985 10.2585 40.5311 10.0893 40.6959 9.9582C40.9891 9.69183 41.3638 9.53996 41.7547 9.52911C41.9954 9.53958 42.23 9.60957 42.4389 9.73316C42.6477 9.85675 42.8245 10.0303 42.9544 10.2391L47.6783 16.9471L46.9884 16.8452L51.3434 10.2885C51.4676 10.0618 51.646 9.87164 51.8618 9.73601C52.0776 9.60039 52.3235 9.52385 52.5761 9.51367Z" fill="#040647"/>
<path d="M67.6524 20.5503C67.6766 21.8306 67.3659 23.0941 66.7526 24.2083C66.1804 25.2365 65.3522 26.089 64.3532 26.6779C63.3156 27.2594 62.1529 27.564 60.9715 27.564C59.7901 27.564 58.6274 27.2594 57.5898 26.6779C56.5899 26.0902 55.7614 25.2374 55.1904 24.2083C54.5753 23.0948 54.2644 21.8308 54.2906 20.5503C54.2644 19.2697 54.5753 18.0057 55.1904 16.8922C55.7649 15.8658 56.5926 15.0139 57.5898 14.4226C58.625 13.8335 59.7886 13.5244 60.9715 13.5244C62.1544 13.5244 63.318 13.8335 64.3532 14.4226C65.3495 15.0151 66.177 15.8667 66.7526 16.8922C67.3659 18.0065 67.6766 19.2699 67.6524 20.5503ZM64.7011 20.5503C64.72 19.7714 64.5467 19.0003 64.1972 18.3091C63.8831 17.7005 63.4159 17.1898 62.8446 16.8305C62.2748 16.483 61.6248 16.2997 60.9625 16.2997C60.3003 16.2997 59.6502 16.483 59.0805 16.8305C58.5098 17.1908 58.0429 17.7012 57.7278 18.3091C57.3752 18.9994 57.1987 19.7706 57.2149 20.5503C57.1976 21.3211 57.3709 22.0838 57.7188 22.7667C58.0329 23.3753 58.5001 23.886 59.0715 24.2454C59.6412 24.5928 60.2913 24.7762 60.9535 24.7762C61.6158 24.7762 62.2658 24.5928 62.8356 24.2454C63.4076 23.8868 63.8749 23.376 64.1882 22.7667C64.5434 22.0858 64.724 21.323 64.7131 20.5503H64.7011Z" fill="#040647"/>
<path d="M79.8729 13.7683C80.0689 13.7604 80.2643 13.7947 80.4467 13.8692C80.629 13.9436 80.7942 14.0564 80.9316 14.2005C81.0691 14.3462 81.1768 14.5188 81.2484 14.7081C81.32 14.8974 81.354 15.0995 81.3485 15.3025V21.7419C81.3485 23.5283 80.8657 24.9452 79.8999 25.9927C78.9341 27.0402 77.5404 27.564 75.7189 27.564C73.8993 27.564 72.5096 27.0402 71.5499 25.9927C70.5901 24.9452 70.1102 23.5283 70.1102 21.7419V15.3118C70.1035 15.1072 70.137 14.9033 70.2086 14.7124C70.2803 14.5214 70.3886 14.3473 70.5271 14.2005C70.8108 13.9172 71.1906 13.7588 71.5859 13.7588C71.9811 13.7588 72.3609 13.9172 72.6446 14.2005C72.782 14.3462 72.8897 14.5188 72.9613 14.7081C73.0329 14.8974 73.067 15.0995 73.0615 15.3025V21.7419C73.0615 22.7709 73.2825 23.5344 73.7244 24.0325C74.1662 24.5305 74.8311 24.7785 75.7189 24.7764C76.6187 24.7764 77.2935 24.5295 77.7344 24.0325C78.1753 23.5355 78.3972 22.7699 78.3972 21.7419V15.3118C78.3898 15.1076 78.4223 14.904 78.4929 14.7131C78.5635 14.5222 78.6707 14.3478 78.8081 14.2005C78.9462 14.0555 79.1123 13.9421 79.2958 13.8676C79.4792 13.7931 79.6759 13.7593 79.8729 13.7683Z" fill="#040647"/>
<path d="M95.1985 8.57919C95.3941 8.57274 95.5889 8.60747 95.7709 8.68125C95.953 8.75504 96.1185 8.86632 96.2573 9.00828C96.3969 9.15498 96.5059 9.32951 96.5776 9.52114C96.6493 9.71278 96.6822 9.91749 96.6742 10.1227V25.7644C96.6788 25.9659 96.6443 26.1664 96.5727 26.354C96.5011 26.5416 96.3939 26.7127 96.2573 26.8572C95.9762 27.1456 95.5955 27.3075 95.1985 27.3075C94.8016 27.3075 94.4209 27.1456 94.1398 26.8572C94.0021 26.7116 93.8942 26.539 93.8226 26.3497C93.751 26.1604 93.7171 25.9582 93.7229 25.7551V24.5203L94.2628 24.7457C94.2323 25.0423 94.1127 25.3217 93.9208 25.5452C93.6518 25.8967 93.3369 26.2084 92.9851 26.4713C92.5588 26.7929 92.0915 27.0526 91.5964 27.243C91.0418 27.4545 90.4542 27.5591 89.8628 27.5517C88.7747 27.5654 87.7063 27.2522 86.7885 26.6503C85.8603 26.0435 85.1081 25.1904 84.611 24.1808C84.0612 23.0546 83.7863 21.8075 83.8102 20.5474C83.7846 19.2792 84.0594 18.0237 84.611 16.8893C85.1054 15.8865 85.847 15.0349 86.7615 14.4197C87.6542 13.8243 88.6971 13.512 89.7608 13.5214C90.4229 13.5112 91.0816 13.6199 91.7074 13.8425C92.2573 14.0401 92.775 14.3221 93.243 14.679C93.6283 14.9651 93.9683 15.3108 94.2508 15.7039C94.4523 15.9516 94.5767 16.256 94.6077 16.5775L93.7229 16.9048V10.1134C93.7174 9.91038 93.7515 9.70828 93.8231 9.51901C93.8947 9.32974 94.0024 9.15713 94.1398 9.01137C94.2773 8.86749 94.4426 8.75474 94.6249 8.68032C94.8072 8.6059 95.0026 8.57146 95.1985 8.57919ZM90.2317 24.7765C90.9025 24.7915 91.5621 24.5978 92.1243 24.2209C92.6719 23.8418 93.1093 23.3169 93.39 22.7021C93.7013 22.0274 93.8573 21.288 93.8459 20.5412C93.8551 19.7947 93.6992 19.0557 93.39 18.3803C93.1093 17.7655 92.6719 17.2406 92.1243 16.8615C91.5599 16.4985 90.9077 16.306 90.2422 16.306C89.5767 16.306 88.9245 16.4985 88.3602 16.8615C87.8125 17.2406 87.3751 17.7655 87.0945 18.3803C86.7852 19.0557 86.6293 19.7947 86.6386 20.5412C86.6271 21.288 86.7831 22.0274 87.0945 22.7021C87.3751 23.3169 87.8125 23.8418 88.3602 24.2209C88.9155 24.5958 89.5677 24.7894 90.2317 24.7765Z" fill="#040647"/>
<path d="M112.512 20.5503C112.538 21.8308 112.227 23.0948 111.612 24.2083C111.041 25.2374 110.212 26.0902 109.212 26.6779C108.175 27.2594 107.012 27.564 105.831 27.564C104.649 27.564 103.487 27.2594 102.449 26.6779C101.45 26.089 100.622 25.2365 100.05 24.2083C99.4363 23.0941 99.1255 21.8306 99.1498 20.5503C99.1255 19.2699 99.4363 18.0065 100.05 16.8922C100.625 15.8667 101.453 15.0151 102.449 14.4226C103.484 13.8335 104.648 13.5244 105.831 13.5244C107.014 13.5244 108.177 13.8335 109.212 14.4226C110.21 15.0139 111.037 15.8658 111.612 16.8922C112.227 18.0057 112.538 19.2697 112.512 20.5503ZM109.56 20.5503C109.579 19.7714 109.406 19.0003 109.056 18.3091C108.741 17.7012 108.274 17.1908 107.704 16.8305C107.134 16.483 106.484 16.2997 105.822 16.2997C105.159 16.2997 104.509 16.483 103.94 16.8305C103.368 17.1898 102.901 17.7005 102.587 18.3091C102.237 19.0003 102.064 19.7714 102.083 20.5503C102.066 21.3211 102.239 22.0838 102.587 22.7667C102.9 23.376 103.368 23.8868 103.94 24.2454C104.509 24.5928 105.159 24.7762 105.822 24.7762C106.484 24.7762 107.134 24.5928 107.704 24.2454C108.275 23.886 108.742 23.3753 109.056 22.7667C109.404 22.0838 109.578 21.3211 109.56 20.5503Z" fill="#040647"/>
<path d="M116.25 12.1196C115.838 12.1597 115.425 12.0622 115.071 11.8418C114.944 11.716 114.846 11.5618 114.787 11.3909C114.727 11.2201 114.706 11.0374 114.726 10.857V10.3755C114.726 9.88462 114.852 9.55123 115.107 9.37527C115.463 9.17234 115.868 9.08011 116.274 9.10979C116.692 9.07131 117.112 9.16845 117.474 9.38762C117.601 9.51396 117.698 9.66879 117.758 9.8401C117.818 10.0114 117.839 10.1946 117.818 10.3755V10.857C117.818 11.3448 117.695 11.6782 117.45 11.8541C117.083 12.0612 116.666 12.1534 116.25 12.1196ZM117.749 25.764C117.754 25.9656 117.72 26.166 117.648 26.3536C117.576 26.5413 117.469 26.7123 117.333 26.8568C117.052 27.1443 116.671 27.3056 116.275 27.3056C115.879 27.3056 115.499 27.1443 115.218 26.8568C115.08 26.7114 114.972 26.5389 114.899 26.3496C114.827 26.1603 114.793 25.958 114.798 25.7548V15.3115C114.793 15.1083 114.828 14.906 114.9 14.7168C114.972 14.5275 115.08 14.355 115.218 14.2095C115.501 13.9264 115.881 13.7681 116.275 13.7681C116.67 13.7681 117.049 13.9264 117.333 14.2095C117.47 14.3552 117.578 14.5278 117.649 14.7171C117.721 14.9064 117.755 15.1085 117.749 15.3115V25.764Z" fill="#040647"/>
<path d="M120.92 14.0207H126.748C126.93 14.016 127.111 14.0495 127.28 14.119C127.449 14.1885 127.603 14.2927 127.732 14.4251C127.861 14.5576 127.963 14.7156 128.031 14.8897C128.099 15.0637 128.131 15.2501 128.127 15.4376C128.132 15.6192 128.099 15.7998 128.031 15.9674C127.962 16.135 127.86 16.2858 127.731 16.41C127.602 16.5405 127.448 16.6428 127.279 16.7107C127.11 16.7786 126.929 16.8107 126.748 16.8051H120.92C120.738 16.8093 120.557 16.7755 120.388 16.7056C120.219 16.6357 120.065 16.5312 119.936 16.3984C119.808 16.2657 119.706 16.1074 119.639 15.9332C119.571 15.7591 119.539 15.5726 119.543 15.3851C119.54 15.2038 119.572 15.0237 119.64 14.8562C119.708 14.6888 119.809 14.5377 119.936 14.4127C120.066 14.2829 120.221 14.1813 120.39 14.1139C120.558 14.0466 120.739 14.0148 120.92 14.0207ZM123.55 10.8565C123.745 10.8488 123.94 10.8842 124.12 10.9603C124.301 11.0365 124.464 11.1516 124.597 11.2979C124.866 11.5967 125.01 11.9929 124.996 12.4V23.6644C124.988 23.8669 125.035 24.0678 125.131 24.2447C125.216 24.3933 125.345 24.5092 125.5 24.575C125.66 24.6436 125.831 24.6783 126.004 24.6769C126.191 24.6781 126.375 24.6392 126.547 24.5627C126.725 24.4826 126.919 24.4436 127.114 24.4485C127.235 24.4532 127.354 24.4848 127.462 24.5413C127.57 24.5978 127.665 24.6778 127.74 24.7757C127.864 24.9362 127.951 25.1233 127.995 25.3231C128.039 25.5229 128.039 25.7304 127.995 25.9301C127.95 26.1298 127.863 26.3168 127.739 26.4771C127.615 26.6374 127.458 26.767 127.279 26.8563C126.792 27.1559 126.235 27.3138 125.668 27.3132C125.285 27.3097 124.902 27.2798 124.522 27.2236C124.105 27.1643 123.703 27.0172 123.343 26.7915C122.948 26.5356 122.628 26.1725 122.42 25.7419C122.146 25.1328 122.019 24.4644 122.051 23.794V12.4C122.047 12.1961 122.083 11.9936 122.157 11.8044C122.231 11.6152 122.341 11.4434 122.481 11.2992C122.621 11.155 122.788 11.0415 122.972 10.9654C123.156 10.8894 123.352 10.8523 123.55 10.8565Z" fill="#040647"/>
</svg>
