<svg width="26" height="26" viewBox="0 0 26 26" fill="none" xmlns="http://www.w3.org/2000/svg">
<path d="M5.78671 0H1.38351C0.620586 0 0 0.620586 0 1.38351V5.78671C0 6.54963 0.620586 7.17022 1.38351 7.17022H5.78671C6.54963 7.17022 7.17022 6.54963 7.17022 5.78671V1.38351C7.17031 0.620586 6.54963 0 5.78671 0Z" fill="#040647"/>
<path d="M15.2017 0H10.7986C10.0356 0 9.41504 0.620586 9.41504 1.38351V5.78671C9.41504 6.54963 10.0356 7.17022 10.7986 7.17022H15.2017C15.9647 7.17022 16.5853 6.54963 16.5853 5.78671V1.38351C16.5853 0.620586 15.9647 0 15.2017 0Z" fill="#040647"/>
<path d="M5.78671 9.41492H1.38351C0.620586 9.41492 0 10.0355 0 10.7984V15.2016C0 15.9646 0.620586 16.5851 1.38351 16.5851H5.78671C6.54963 16.5851 7.17022 15.9646 7.17022 15.2016V10.7984C7.17031 10.0355 6.54963 9.41492 5.78671 9.41492Z" fill="#040647"/>
<path d="M15.2017 9.41492H10.7986C10.0356 9.41492 9.41504 10.0355 9.41504 10.7984V15.2016C9.41504 15.9646 10.0356 16.5851 10.7986 16.5851H15.2017C15.9647 16.5851 16.5853 15.9646 16.5853 15.2016V10.7984C16.5853 10.0355 15.9647 9.41492 15.2017 9.41492Z" fill="#040647"/>
<path d="M24.6168 0H20.2136C19.4507 0 18.8301 0.620586 18.8301 1.38351V5.78671C18.8301 6.54963 19.4507 7.17022 20.2136 7.17022H24.6168C25.3797 7.17022 26.0003 6.54963 26.0003 5.78671V1.38351C26.0003 0.620586 25.3797 0 24.6168 0Z" fill="#040647"/>
<path d="M24.6168 9.41492H20.2136C19.4507 9.41492 18.8301 10.0355 18.8301 10.7984V15.2016C18.8301 15.9646 19.4507 16.5851 20.2136 16.5851H24.6168C25.3797 16.5851 26.0003 15.9646 26.0003 15.2016V10.7984C26.0003 10.0355 25.3797 9.41492 24.6168 9.41492Z" fill="#040647"/>
<path d="M5.78671 18.8297H1.38351C0.620586 18.8297 0 19.4504 0 20.2133V24.6165C0 25.3794 0.620586 26 1.38351 26H5.78671C6.54963 26 7.17022 25.3794 7.17022 24.6165V20.2133C7.17031 19.4504 6.54963 18.8297 5.78671 18.8297Z" fill="#040647"/>
<path d="M15.2017 18.8297H10.7986C10.0356 18.8297 9.41504 19.4503 9.41504 20.2132V24.6164C9.41504 25.3793 10.0356 25.9999 10.7986 25.9999H15.2017C15.9647 25.9999 16.5853 25.3793 16.5853 24.6164V20.2132C16.5853 19.4504 15.9647 18.8297 15.2017 18.8297Z" fill="#040647"/>
<path d="M24.6168 18.8297H20.2136C19.4507 18.8297 18.8301 19.4503 18.8301 20.2132V24.6164C18.8301 25.3793 19.4507 25.9999 20.2136 25.9999H24.6168C25.3797 25.9999 26.0003 25.3793 26.0003 24.6164V20.2132C26.0003 19.4504 25.3797 18.8297 24.6168 18.8297Z" fill="#040647"/>
</svg>
