<svg width="30" height="30" viewBox="0 0 30 30" fill="none" xmlns="http://www.w3.org/2000/svg">
<g clip-path="url(#clip0_831_138)">
<path d="M16.873 5.225C16.528 5.225 16.248 4.945 16.248 4.6V2.5C16.248 1.81125 15.6868 1.25 14.998 1.25C14.3093 1.25 13.748 1.81125 13.748 2.5V4.6C13.748 4.945 13.468 5.225 13.123 5.225C12.778 5.225 12.498 4.94625 12.498 4.6V2.5C12.498 1.12125 13.6193 0 14.998 0C16.3768 0 17.498 1.12125 17.498 2.5V4.6C17.498 4.94625 17.218 5.225 16.873 5.225Z" fill="#040647"/>
<path d="M14.998 30C12.5855 30 10.623 28.0375 10.623 25.625C10.623 25.28 10.903 25 11.248 25C11.593 25 11.873 25.28 11.873 25.625C11.873 27.3475 13.2755 28.75 14.998 28.75C16.7205 28.75 18.123 27.3475 18.123 25.625C18.123 25.28 18.403 25 18.748 25C19.093 25 19.373 25.28 19.373 25.625C19.373 28.0375 17.4105 30 14.998 30Z" fill="#040647" stroke="#040647" stroke-width="0.2"/>
<path d="M25.627 26.25H4.37695C3.3432 26.25 2.50195 25.4088 2.50195 24.375C2.50195 23.8263 2.7407 23.3075 3.1582 22.95C5.1282 21.285 6.25195 18.8625 6.25195 16.2975V12.5C6.25195 7.675 10.177 3.75 15.002 3.75C19.827 3.75 23.752 7.675 23.752 12.5V16.2975C23.752 18.8638 24.8757 21.285 26.8357 22.9412C27.2632 23.3075 27.502 23.8263 27.502 24.375C27.502 25.4088 26.662 26.25 25.627 26.25ZM15.002 5C10.8657 5 7.50195 8.36375 7.50195 12.5V16.2975C7.50195 19.2325 6.21695 22.0013 3.9757 23.8963C3.83195 24.0188 3.75195 24.1925 3.75195 24.375C3.75195 24.72 4.03195 25 4.37695 25H25.627C25.972 25 26.252 24.72 26.252 24.375C26.252 24.1925 26.172 24.0188 26.0332 23.9C23.7882 22.0013 22.502 19.2312 22.502 16.2975V12.5C22.502 8.36375 19.1382 5 15.002 5Z" fill="#040647" stroke="#040647" stroke-width="0.3"/>
</g>
<defs>
<clipPath id="clip0_831_138">
<rect width="30" height="30" fill="white"/>
</clipPath>
</defs>
</svg>
