<svg width="16" height="16" viewBox="0 0 16 16" fill="none" xmlns="http://www.w3.org/2000/svg">
<path d="M7.99636 6.9671L13.8906 1.07285L7.99636 6.9671ZM7.99636 6.9671L2.1012 1.07191L2.10121 1.07189L2.09933 1.07008C1.80812 0.788831 1.34407 0.796903 1.06283 1.08811C0.788453 1.37219 0.788453 1.82254 1.06283 2.10662L1.06281 2.10664L1.06465 2.10848L6.95982 8.00364L1.06465 13.8988L1.06464 13.8988C0.778452 14.185 0.778452 14.6491 1.06464 14.9353L1.06467 14.9354C1.3509 15.2215 1.81494 15.2215 2.10118 14.9354L2.10119 14.9353L7.99636 9.04018L13.8915 14.9353L13.8915 14.9354L13.8934 14.9372C14.1846 15.2184 14.6486 15.2103 14.9299 14.9191L14.9299 14.9191C15.2042 14.6351 15.2042 14.1847 14.9299 13.9007L14.9299 13.9006L14.9281 13.8988L9.03293 8.00364L14.9272 2.10937C15.2175 1.82803 15.2252 1.36469 14.9443 1.0738C14.663 0.78261 14.199 0.774518 13.9078 1.05571L7.99636 6.9671Z" fill="black" stroke="black" stroke-width="0.3"/>
</svg>
