 <svg
    width="20"
    height="22"
    viewBox="0 0 20 22"
    fill="none"
    xmlns="http://www.w3.org/2000/svg"
>
    <path
    d="M10.3391 2.24601L15.5556 2.24601C16.9179 2.24601 18.0235 3.35563 18.0235 4.71392L18.0235 17.2861C18.0235 18.6484 16.9139 19.754 15.5556 19.754L10.2543 19.754C9.88069 19.754 9.58125 20.0534 9.58125 20.427C9.58125 20.8006 9.88069 21.1 10.2543 21.1L15.5556 21.1C17.661 21.1 19.3695 19.3871 19.3695 17.2861L19.3695 4.71392C19.3695 2.60853 17.6566 0.899999 15.5556 0.899999L10.3391 0.899999C9.96558 0.899999 9.66614 1.19944 9.66614 1.573C9.66614 1.94705 9.97031 2.24601 10.3391 2.24601Z"
    fill="#193651"
    stroke="#193651"
    strokeWidth="0.2"
    />
    <path
    d="M0.899201 11.4034L4.54097 15.0451C4.76592 15.2701 5.1267 15.2701 5.35166 15.0451C5.57662 14.8202 5.57662 14.4594 5.35166 14.2345L2.68613 11.5689L14.3118 11.5689C14.6301 11.5689 14.8848 11.3142 14.8848 10.9959C14.8848 10.6776 14.6301 10.4229 14.3118 10.4229L2.68613 10.4229L5.35166 7.75737C5.57662 7.53241 5.57662 7.17163 5.35166 6.94668C5.24131 6.83632 5.09275 6.7769 4.94844 6.7769C4.80412 6.7769 4.65557 6.83208 4.54521 6.94668L0.903445 10.5884C0.674242 10.8176 0.674243 11.1827 0.899201 11.4034Z"
    fill="#193651"
    />
</svg> 