<svg width="26" height="26" viewBox="0 0 26 26" fill="none" xmlns="http://www.w3.org/2000/svg">
<g clip-path="url(#clip0_740_1238)">
<path d="M5.78671 0H1.38351C0.620586 0 0 0.620586 0 1.38351V5.78671C0 6.54963 0.620586 7.17022 1.38351 7.17022H5.78671C6.54963 7.17022 7.17022 6.54963 7.17022 5.78671V1.38351C7.17031 0.620586 6.54963 0 5.78671 0Z" fill="#040647"/>
<path d="M15.2008 0H10.7976C10.0346 0 9.41406 0.620586 9.41406 1.38351V5.78671C9.41406 6.54963 10.0346 7.17022 10.7976 7.17022H15.2008C15.9637 7.17022 16.5843 6.54963 16.5843 5.78671V1.38351C16.5843 0.620586 15.9637 0 15.2008 0Z" fill="#040647"/>
<path d="M5.78671 9.41504H1.38351C0.620586 9.41504 0 10.0356 0 10.7986V15.2017C0 15.9647 0.620586 16.5853 1.38351 16.5853H5.78671C6.54963 16.5853 7.17022 15.9647 7.17022 15.2017V10.7986C7.17031 10.0356 6.54963 9.41504 5.78671 9.41504Z" fill="#040647"/>
<path d="M15.2008 9.41504H10.7976C10.0346 9.41504 9.41406 10.0356 9.41406 10.7986V15.2017C9.41406 15.9647 10.0346 16.5853 10.7976 16.5853H15.2008C15.9637 16.5853 16.5843 15.9647 16.5843 15.2017V10.7986C16.5843 10.0356 15.9637 9.41504 15.2008 9.41504Z" fill="#040647"/>
<path d="M24.6148 0H20.2116C19.4487 0 18.8281 0.620586 18.8281 1.38351V5.78671C18.8281 6.54963 19.4487 7.17022 20.2116 7.17022H24.6148C25.3778 7.17022 25.9984 6.54963 25.9984 5.78671V1.38351C25.9984 0.620586 25.3778 0 24.6148 0Z" fill="#040647"/>
<path d="M24.6148 9.41504H20.2116C19.4487 9.41504 18.8281 10.0356 18.8281 10.7986V15.2017C18.8281 15.9647 19.4487 16.5853 20.2116 16.5853H24.6148C25.3778 16.5853 25.9984 15.9647 25.9984 15.2017V10.7986C25.9984 10.0356 25.3778 9.41504 24.6148 9.41504Z" fill="#040647"/>
<path d="M5.78671 18.8301H1.38351C0.620586 18.8301 0 19.4508 0 20.2137V24.6169C0 25.3798 0.620586 26.0004 1.38351 26.0004H5.78671C6.54963 26.0004 7.17022 25.3798 7.17022 24.6169V20.2137C7.17031 19.4508 6.54963 18.8301 5.78671 18.8301Z" fill="#040647"/>
<path d="M15.2008 18.8301H10.7976C10.0346 18.8301 9.41406 19.4507 9.41406 20.2136V24.6168C9.41406 25.3797 10.0346 26.0003 10.7976 26.0003H15.2008C15.9637 26.0003 16.5843 25.3797 16.5843 24.6168V20.2136C16.5843 19.4508 15.9637 18.8301 15.2008 18.8301Z" fill="#040647"/>
<path d="M24.6148 18.8301H20.2116C19.4487 18.8301 18.8281 19.4507 18.8281 20.2136V24.6168C18.8281 25.3797 19.4487 26.0003 20.2116 26.0003H24.6148C25.3778 26.0003 25.9984 25.3797 25.9984 24.6168V20.2136C25.9984 19.4508 25.3778 18.8301 24.6148 18.8301Z" fill="#040647"/>
</g>
<defs>
<clipPath id="clip0_740_1238">
<rect width="26" height="26" fill="white"/>
</clipPath>
</defs>
</svg>
