<svg
    width="22"
    height="22"
    viewBox="0 0 22 22"
    fill="none"
    xmlns="http://www.w3.org/2000/svg"
>
    <path
    d="M12.4442 4.53711H2.407C1.08315 4.53711 0 5.62026 0 6.94411V15.0557C0 16.3796 1.08315 17.4627 2.407 17.4627H12.4442C13.7681 17.4627 14.8512 16.3796 14.8512 15.0557V6.94411C14.8512 5.59619 13.7681 4.53711 12.4442 4.53711Z"
    fill="#3083DC"
    />
    <path
    d="M20.2188 5.86104C20.0744 5.88511 19.93 5.95732 19.8096 6.02953L16.0547 8.19583V13.7801L19.8337 15.9464C20.5317 16.3556 21.3982 16.1149 21.8074 15.4168C21.9278 15.2002 22 14.9595 22 14.6947V7.2571C22 6.36651 21.1575 5.64441 20.2188 5.86104Z"
    fill="#3083DC"
    />
</svg>